<svg width="16" height="25" viewBox="0 0 16 25" fill="none" xmlns="http://www.w3.org/2000/svg">
<circle cx="8.50008" cy="19.1667" r="5.33333" stroke="black"/>
<circle cx="8.50008" cy="19.1667" r="5.33333" stroke="black"/>
<path d="M8.08316 13.3334C5.41649 13 5.58316 11.25 5.99982 10.4167V5.41671C6.27762 5.13893 7.0832 4.58337 8.08316 4.58337C9.08311 4.58337 9.33317 5.69449 9.33321 6.25004V10.4167C9.33321 10.8334 9.91654 12 12.2499 13.3334C14.5832 14.6667 13.7777 16.1112 13.0832 16.6667L9.33321 19.5834L8.08316 18.3334L11.4165 15.8334C11.4165 15.1389 10.7498 13.6667 8.08316 13.3334Z" fill="white" stroke="black"/>
<circle cx="8.08333" cy="2.08333" r="1.58333" stroke="black"/>
<line x1="6.35355" y1="18.8131" x2="8.85355" y2="21.3131" stroke="black"/>
<path d="M10.1667 20.8334L8.08341 18.3334L7.66675 19.1667L9.33341 21.25L10.1667 20.8334Z" fill="black"/>
<path d="M6 7.08329L1 2.49996L1.83333 1.66663L6 4.99996M8.91667 4.99996L13.0833 7.49996L15.1667 7.91663V9.16663L12.25 8.33329L9.33333 7.08329" stroke="black"/>
</svg>
