<svg id="Layer_1" data-name="Layer 1" xmlns="http://www.w3.org/2000/svg" viewBox="0 0 340.5 389.1">
    <path d="M328 148c9 82 13 159-36 187-29 16-156 46-208 54C7 401 1 202 0 127 0 67 11 23 46 31c12 3 85 49 128 49 38 0 80-66 108-49 22 13 34 15 46 117z" style="isolation:isolate" fill="#e5f3f7" opacity=".8"/><path d="M335 319c-33 58-149 25-207-7S6 145 38 86 145-22 203 10s164 251 132 309z" style="isolation:isolate" fill="#a9c55c" opacity=".1"/><path class="cls-3" fill="#f37468" d="M90 76l-3 1v4a8 8 0 01-5 7 5 5 0 01-5 0 6 6 0 01-2-5v-2l-10 3v4a8 8 0 01-6 7 5 5 0 01-4 0 6 6 0 01-3-5v-2l-3 1a13 13 0 00-9 13l2 38a9 9 0 003 7 9 9 0 008 1l5-2v2a10 10 0 0013 7l40-12a10 10 0 007-13l-15-47a10 10 0 00-13-7zm-39 66a2 2 0 01-2 0 2 2 0 01-1-3l-1-31 47-15 1 30a7 7 0 01-4 6l-40 13zm61-10a4 4 0 01-3 5l-40 12a4 4 0 01-5-3v-2l29-9a13 13 0 009-13l-2-27z"/><path class="cls-3" fill="#f37468" d="M59 93a5 5 0 003-5v-4a3 3 0 00-4-3 5 5 0 00-3 5v4a3 3 0 004 3zM81 86a5 5 0 003-5v-4a3 3 0 00-3-3 5 5 0 00-3 5v4a3 3 0 003 3zM75 119l-7 2a1 1 0 00-1 1v6a1 1 0 001 0l7-2a1 1 0 001-1v-6a1 1 0 00-1 0zM62 123l-7 2a1 1 0 00-1 1l1 6 7-2a1 1 0 001-1v-6a1 1 0 00-1 0zM87 115l-7 2a1 1 0 00-1 1l1 6 8-2a1 1 0 000-1v-6a1 1 0 00-1 0zM74 107l-7 2a1 1 0 00-1 1l1 6a1 1 0 000 1l7-3a1 1 0 001-1v-5a1 1 0 00-1-1zM62 111l-7 2a1 1 0 00-1 1v6a1 1 0 001 0l7-2a1 1 0 001-1v-6a1 1 0 00-1 0zM80 113l7-3a1 1 0 001-1v-5a1 1 0 00-1-1l-7 2a1 1 0 00-1 1v6a1 1 0 001 1z"/><path d="M154 156l-17 20-7-8-9 9 17 18 26-31zm18 17v13h52v-13zm-18 30l-17 20-7-8-9 9 17 18 26-31zm18 17v13h52v-13zm-18 30l-17 20-7-8-9 9 17 18 26-31zm18 17v13h52v-13z" fill="#1a4174"/></svg>