<svg id="Layer_1" data-name="Layer 1" xmlns="http://www.w3.org/2000/svg" viewBox="0 0 340.2 391.2">
    <path d="M23 274c-4-83 73-161 122-190 28-16 70-43 122-51 77-12 69 208 69 283 1 60-46 56-69 47l-90-21c-44-10-76 55-108 49-20-4-40-16-46-117z" style="isolation:isolate" opacity=".1" fill="#2cabe2" stroke="#a9c55c"/>
    <path d="M179 48c38 55 109 155 54 193s-174 5-212-50A121 121 0 0152 23c55-38 89-29 127 25z" style="isolation:isolate" fill="#a9c55c" opacity=".1"/>
    <path d="M164 149l-17 20-7-8-9 9 17 18 26-31zm18 17v12h52v-12zm-18 30l-17 20-7-8-9 9 17 18 26-31zm18 17v12h52v-12zm-18 30l-17 20-7-8-9 9 17 18 26-31zm18 17v12h52v-12z" fill="#1a4174"/>
    <path class="cls-4" d="M37 122l-6 3a1 1 0 001 2l6-2a1 1 0 001-2 1 1 0 00-2-1zM105 95l-5 2a1 1 0 001 3l5-3a1 1 0 00-1-2zM84 74l-3 6a1 1 0 003 1l2-6a1 1 0 10-2-1zM52 75l2 6a1 1 0 102-1l-1-6a1 1 0 00-2 0 1 1 0 00-1 1zM54 142l-2 5a1 1 0 001 2 1 1 0 001-1l3-5a1 1 0 00-3-1zM100 123a1 1 0 10-1 2l6 3a1 1 0 001 0 1 1 0 000-1 1 1 0 000-2zM37 99a1 1 0 001 0 1 1 0 001-1 1 1 0 00-1-1l-5-3a1 1 0 10-1 3zM90 124a26 26 0 10-28 11 6 6 0 013 3l3 7h-1a2 2 0 000 2 1 1 0 002 1 12 12 0 002 3 2 2 0 001 3l1-1a12 12 0 0010 2 3 3 0 006-2 12 12 0 005-13l1-1a1 1 0 001-2 2 2 0 00-2 0h-1l-1-4h1a2 2 0 00-2-3v1l-1-2a5 5 0 010-5zm-28 8a23 23 0 01-4-43h2a23 23 0 0128 33 8 8 0 00-1 7l-19 7a9 9 0 00-6-4zm29 7l-17 11a9 9 0 01-2-3v-1l17-11zm-2-6l-18 11-2-5 19-8zm-3 18l-2 1a9 9 0 01-8-1l16-10a9 9 0 01-6 10zM281 249h-21l-3 1a129 129 0 01-22 3h-1a18 18 0 01-4-1 13 13 0 01-5-3 10 10 0 010-1 10 10 0 01-1-2v-1l7-2 2-1 27-7a5 5 0 014 1l2 1 6 5z" fill="#f37468" stroke="#f37468" stroke-miterlimit="10"/>
    <path fill="#c4c4c4" d="M270 213l-52 49-4 8 8-3 53-49-5-5z"/>
    <path class="cls-4" d="M294 366l-13-30-10-22c-19-15-27-30-27-30l-15-22v-1l-3-3-2-3v-2l6-1h1a13 13 0 017 3c1 0 10 11 18 17a8 8 0 0010 0 8 8 0 002-3l-16-30 19 24-11-14 6-12 27 22a7 7 0 012 4l3 38 20 33z" fill="#f37468" stroke="#f37468" stroke-miterlimit="10"/>
</svg>