<?xml version="1.0" encoding="utf-8"?>
<!-- Generator: Adobe Illustrator 16.0.0, SVG Export Plug-In . SVG Version: 6.00 Build 0)  -->
<!DOCTYPE svg PUBLIC "-//W3C//DTD SVG 1.1//EN" "http://www.w3.org/Graphics/SVG/1.1/DTD/svg11.dtd">
<svg version="1.1"
	 id="Layer_1" xmlns:inkscape="http://www.inkscape.org/namespaces/inkscape" xmlns:sodipodi="http://sodipodi.sourceforge.net/DTD/sodipodi-0.dtd" xmlns:svg="http://www.w3.org/2000/svg" inkscape:version="1.1 (c68e22c387, 2021-05-23)" sodipodi:docname="profile-icon.svg"
	 xmlns="http://www.w3.org/2000/svg" xmlns:xlink="http://www.w3.org/1999/xlink" x="194px" y="0px" width="560px" height="560px"
	 viewBox="194 0 560 560" enable-background="new 194 0 560 560" xml:space="preserve">
<g>
	<defs>
		<rect id="SVGID_1_" x="201" y="1" width="559" height="559"/>
	</defs>
	<clipPath id="SVGID_2_">
		<use xlink:href="#SVGID_1_"  overflow="visible"/>
	</clipPath>
	<path clip-path="url(#SVGID_2_)" fill="#F37468" d="M463.627,228.813v-24.541h26.931v25.409L463.627,228.813z M528.406,133.397
		c0,3.639-0.596,7.278-1.786,10.786c-0.993,2.986-2.382,5.831-4.169,8.403c-1.918,2.391-3.97,4.574-6.22,6.559l-7.015,5.484
		l-7.277,5.104c-2.184,1.654-4.235,3.432-6.221,5.417c-1.787,1.861-3.309,3.979-4.565,6.22c-1.19,2.457-1.853,5.095-1.919,7.808
		h-25.401c0.662-8.792,4.558-17.063,11.108-23.019c2.713-2.713,5.691-5.236,8.867-7.477c3.043-2.118,5.955-4.434,8.734-6.89
		c2.646-2.117,4.896-4.558,6.749-7.336c1.853-2.912,2.779-6.286,2.647-9.669c0.197-4.831-1.787-9.454-5.294-12.705
		c-4.302-3.441-9.794-5.087-15.285-4.698c-2.912-0.066-5.823,0.405-8.602,1.39c-2.573,0.935-5.029,2.324-7.146,4.036
		c-2.051,1.795-3.78,3.913-4.963,6.353c-1.257,2.589-2.117,5.302-2.506,8.147l-26.41-1.133c0.587-5.359,2.118-10.587,4.434-15.483
		c2.374-4.831,5.699-9.131,9.661-12.705c4.301-3.763,9.33-6.675,14.756-8.544c6.352-2.366,13.102-3.557,19.917-3.689
		c6.749-0.066,13.432,0.794,19.917,2.572c5.426,1.53,10.454,4.103,14.888,7.609c4.037,3.118,7.213,7.146,9.264,11.787
		C527.018,122.62,528.34,127.971,528.406,133.397z"/>
	<path clip-path="url(#SVGID_2_)" fill="#1A4174" d="M745.315,525.86c-4.153-51.972-22.974-101.421-54.425-143.002
		c-31.457-41.587-73.913-73.14-122.765-91.24c-2.967-1.102-5.951-2.135-8.944-3.131c45.483-28.083,73.772-77.766,73.772-132.527
		c0-85.924-69.935-155.829-155.895-155.829c-63.281,0-119.801,37.764-143.991,96.207c-24.197,58.44-10.942,125.128,33.776,169.903
		c7.798,7.798,16.284,14.658,25.313,20.543c-7.453,2.316-14.833,4.939-22.121,7.905c-33.419,13.603-63.386,33.385-89.13,58.859
		c-46.136,46.082-74.213,107.313-79.06,172.414l-1.524,20.472H746.96L745.315,525.86z M368.283,110.917
		c18.272-44.146,60.97-72.672,108.776-72.672c64.945,0,117.782,52.807,117.782,117.715c0,47.831-28.548,90.551-72.738,108.837
		c-14.355,5.95-29.503,8.967-45.022,8.967c-31.477,0-61.055-12.243-83.277-34.465C360.017,205.47,349.999,155.078,368.283,110.917z
		 M242.288,508.322c7.902-48.265,30.747-93.04,65.489-127.743c44.278-43.813,102.982-67.943,165.299-67.943
		c27.982,0,55.497,4.95,81.793,14.716c78.837,29.212,135.91,98.939,149.884,180.971H242.288z"/>
</g>
</svg>
